<svg xmlns="http://www.w3.org/2000/svg" width="16" height="16"><path d="M0 3h1v1H0zM1 2h1v1H1zM1 3h1v1H1zM1 4h1v1H1zM2 2h1v1H2zM2 3h1v1H2zM2 4h1v1H2z" style="fill:red"/><path d="M2 15h1v1H2z" style="fill:#000"/><path d="M3 2h1v1H3zM3 3h1v1H3zM3 4h1v1H3z" style="fill:red"/><path d="M3 14h1v1H3zM3 15h1v1H3z" style="fill:#000"/><path d="M4 1h1v1H4zM4 2h1v1H4zM4 3h1v1H4zM4 4h1v1H4zM4 5h1v1H4z" style="fill:red"/><path d="M4 14h1v1H4zM4 15h1v1H4z" style="fill:#000"/><path d="M5 1h1v1H5zM5 2h1v1H5zM5 3h1v1H5zM5 4h1v1H5zM5 5h1v1H5z" style="fill:red"/><path d="M5 14h1v1H5zM5 15h1v1H5z" style="fill:#000"/><path d="M6 0h1v1H6zM6 1h1v1H6zM6 2h1v1H6zM6 3h1v1H6zM6 4h1v1H6zM6 5h1v1H6zM6 6h1v1H6z" style="fill:red"/><path d="M6 13h1v1H6zM6 14h1v1H6zM6 15h1v1H6z" style="fill:#000"/><path d="M7 0h1v1H7zM7 1h1v1H7zM7 2h1v1H7zM7 3h1v1H7zM7 4h1v1H7zM7 5h1v1H7zM7 6h1v1H7z" style="fill:red"/><path d="M7 7h1v1H7zM7 8h1v1H7zM7 9h1v1H7zM7 10h1v1H7zM7 11h1v1H7zM7 12h1v1H7zM7 13h1v1H7zM7 14h1v1H7zM7 15h1v1H7z" style="fill:#000"/><path d="M8 0h1v1H8zM8 1h1v1H8zM8 2h1v1H8zM8 3h1v1H8zM8 4h1v1H8zM8 5h1v1H8zM8 6h1v1H8z" style="fill:red"/><path d="M8 7h1v1H8zM8 8h1v1H8zM8 9h1v1H8zM8 10h1v1H8zM8 11h1v1H8zM8 12h1v1H8zM8 13h1v1H8zM8 14h1v1H8zM8 15h1v1H8zM9 13h1v1H9zM9 14h1v1H9zM9 15h1v1H9zM10 14h1v1h-1zM10 15h1v1h-1zM11 14h1v1h-1zM11 15h1v1h-1zM12 14h1v1h-1zM12 15h1v1h-1zM13 15h1v1h-1z" style="fill:#000"/></svg>