<svg xmlns="http://www.w3.org/2000/svg" width="16" height="16"><path d="M0 3h1v1H0zM0 4h1v1H0zM0 5h1v1H0zM0 6h1v1H0zM0 7h1v1H0zM1 2h1v1H1zM1 3h1v1H1zM1 4h1v1H1zM1 5h1v1H1zM1 6h1v1H1zM1 7h1v1H1zM1 8h1v1H1zM2 1h1v1H2zM2 2h1v1H2zM2 3h1v1H2zM2 7h1v1H2zM2 8h1v1H2zM3 0h1v1H3zM3 1h1v1H3zM3 2h1v1H3zM4 0h1v1H4zM4 1h1v1H4zM5 0h1v1H5zM5 1h1v1H5zM6 0h1v1H6zM6 1h1v1H6zM7 0h1v1H7zM7 1h1v1H7zM7 11h1v1H7zM7 12h1v1H7zM7 14h1v1H7zM7 15h1v1H7zM8 0h1v1H8zM8 1h1v1H8zM8 10h1v1H8zM8 11h1v1H8zM8 12h1v1H8zM8 14h1v1H8zM8 15h1v1H8zM9 0h1v1H9zM9 1h1v1H9zM9 10h1v1H9zM9 11h1v1H9zM10 0h1v1h-1zM10 1h1v1h-1zM10 9h1v1h-1zM10 10h1v1h-1zM11 0h1v1h-1zM11 1h1v1h-1zM11 9h1v1h-1zM11 10h1v1h-1zM12 0h1v1h-1zM12 1h1v1h-1zM12 2h1v1h-1zM12 8h1v1h-1zM12 9h1v1h-1zM13 1h1v1h-1zM13 2h1v1h-1zM13 3h1v1h-1zM13 7h1v1h-1zM13 8h1v1h-1zM13 9h1v1h-1zM14 2h1v1h-1zM14 3h1v1h-1zM14 4h1v1h-1zM14 5h1v1h-1zM14 6h1v1h-1zM14 7h1v1h-1zM14 8h1v1h-1zM15 3h1v1h-1zM15 4h1v1h-1zM15 5h1v1h-1zM15 6h1v1h-1zM15 7h1v1h-1z" style="fill:#000"/></svg>