<svg xmlns="http://www.w3.org/2000/svg" width="16" height="16"><path d="M0 7h1v1H0zM0 8h1v1H0zM1 1h1v1H1zM1 2h1v1H1zM1 7h1v1H1zM1 8h1v1H1zM1 13h1v1H1zM1 14h1v1H1zM2 1h1v1H2zM2 2h1v1H2zM2 3h1v1H2z" style="fill:#5f5f5f"/><path d="M2 6h1v1H2zM2 7h1v1H2zM2 8h1v1H2zM2 9h1v1H2z" style="fill:#000"/><path d="M2 12h1v1H2zM2 13h1v1H2zM2 14h1v1H2zM3 2h1v1H3zM3 3h1v1H3z" style="fill:#5f5f5f"/><path d="M3 4h1v1H3zM3 5h1v1H3zM3 6h1v1H3zM3 7h1v1H3zM3 8h1v1H3zM3 9h1v1H3zM3 10h1v1H3zM3 11h1v1H3z" style="fill:#000"/><path d="M3 12h1v1H3zM3 13h1v1H3z" style="fill:#5f5f5f"/><path d="M4 3h1v1H4zM4 4h1v1H4zM4 5h1v1H4z" style="fill:#000"/><path d="M4 6h1v1H4zM4 7h1v1H4z" style="fill:#fff"/><path d="M4 8h1v1H4zM4 9h1v1H4zM4 10h1v1H4zM4 11h1v1H4zM4 12h1v1H4zM5 3h1v1H5zM5 4h1v1H5z" style="fill:#000"/><path d="M5 5h1v1H5zM5 6h1v1H5zM5 7h1v1H5zM5 8h1v1H5z" style="fill:#fff"/><path d="M5 9h1v1H5zM5 10h1v1H5zM5 11h1v1H5zM5 12h1v1H5zM6 2h1v1H6zM6 3h1v1H6z" style="fill:#000"/><path d="M6 4h1v1H6zM6 5h1v1H6zM6 6h1v1H6z" style="fill:#fff"/><path d="M6 7h1v1H6zM6 8h1v1H6zM6 9h1v1H6zM6 10h1v1H6zM6 11h1v1H6zM6 12h1v1H6zM6 13h1v1H6z" style="fill:#000"/><path d="M7 0h1v1H7zM7 1h1v1H7z" style="fill:#5f5f5f"/><path d="M7 2h1v1H7zM7 3h1v1H7z" style="fill:#000"/><path d="M7 4h1v1H7zM7 5h1v1H7z" style="fill:#fff"/><path d="M7 6h1v1H7zM7 7h1v1H7zM7 8h1v1H7zM7 9h1v1H7zM7 10h1v1H7zM7 11h1v1H7zM7 12h1v1H7zM7 13h1v1H7z" style="fill:#000"/><path d="M7 14h1v1H7zM7 15h1v1H7zM8 0h1v1H8zM8 1h1v1H8z" style="fill:#5f5f5f"/><path d="M8 2h1v1H8zM8 3h1v1H8zM8 4h1v1H8z" style="fill:#000"/><path d="M8 5h1v1H8z" style="fill:#fff"/><path d="M8 6h1v1H8zM8 7h1v1H8zM8 8h1v1H8zM8 9h1v1H8zM8 10h1v1H8zM8 11h1v1H8zM8 12h1v1H8zM8 13h1v1H8z" style="fill:#000"/><path d="M8 14h1v1H8zM8 15h1v1H8z" style="fill:#5f5f5f"/><path d="M9 2h1v1H9zM9 3h1v1H9zM9 4h1v1H9zM9 5h1v1H9zM9 6h1v1H9zM9 7h1v1H9zM9 8h1v1H9zM9 9h1v1H9zM9 10h1v1H9zM9 11h1v1H9zM9 12h1v1H9zM9 13h1v1H9zM10 3h1v1h-1zM10 4h1v1h-1zM10 5h1v1h-1zM10 6h1v1h-1zM10 7h1v1h-1zM10 8h1v1h-1zM10 9h1v1h-1zM10 10h1v1h-1zM10 11h1v1h-1zM10 12h1v1h-1zM11 3h1v1h-1zM11 4h1v1h-1zM11 5h1v1h-1zM11 6h1v1h-1zM11 7h1v1h-1zM11 8h1v1h-1zM11 9h1v1h-1zM11 10h1v1h-1zM11 11h1v1h-1zM11 12h1v1h-1z" style="fill:#000"/><path d="M12 2h1v1h-1zM12 3h1v1h-1z" style="fill:#5f5f5f"/><path d="M12 4h1v1h-1zM12 5h1v1h-1zM12 6h1v1h-1zM12 7h1v1h-1zM12 8h1v1h-1zM12 9h1v1h-1zM12 10h1v1h-1zM12 11h1v1h-1z" style="fill:#000"/><path d="M12 12h1v1h-1zM12 13h1v1h-1zM13 1h1v1h-1zM13 2h1v1h-1zM13 3h1v1h-1z" style="fill:#5f5f5f"/><path d="M13 6h1v1h-1zM13 7h1v1h-1zM13 8h1v1h-1zM13 9h1v1h-1z" style="fill:#000"/><path d="M13 12h1v1h-1zM13 13h1v1h-1zM13 14h1v1h-1zM14 1h1v1h-1zM14 2h1v1h-1zM14 7h1v1h-1zM14 8h1v1h-1zM14 13h1v1h-1zM14 14h1v1h-1zM15 7h1v1h-1zM15 8h1v1h-1z" style="fill:#5f5f5f"/></svg>